<svg width="24" height="24" viewBox="0 0 24 24" fill="none" xmlns="http://www.w3.org/2000/svg">
<path d="M1.49998 13.1667H2.66664V21.3333C2.66664 22.6202 3.71314 23.6667 4.99998 23.6667H19C20.2868 23.6667 21.3333 22.6202 21.3333 21.3333V13.1667H22.5C22.7307 13.1666 22.9562 13.0982 23.148 12.97C23.3398 12.8418 23.4893 12.6596 23.5776 12.4464C23.6659 12.2333 23.689 11.9987 23.644 11.7725C23.599 11.5462 23.4879 11.3383 23.3248 11.1752L12.8248 0.675167C12.7166 0.566731 12.588 0.480703 12.4465 0.422007C12.3049 0.363311 12.1532 0.333099 12 0.333099C11.8468 0.333099 11.695 0.363311 11.5535 0.422007C11.412 0.480703 11.2834 0.566731 11.1751 0.675167L0.675142 11.1752C0.512031 11.3383 0.400957 11.5462 0.355961 11.7725C0.310966 11.9987 0.334069 12.2333 0.422351 12.4464C0.510633 12.6596 0.660129 12.8418 0.85194 12.97C1.04375 13.0982 1.26927 13.1666 1.49998 13.1667ZM9.66664 21.3333V15.5H14.3333V21.3333H9.66664ZM12 3.14967L19 10.1497V15.5L19.0011 21.3333H16.6666V15.5C16.6666 14.2132 15.6201 13.1667 14.3333 13.1667H9.66664C8.37981 13.1667 7.33331 14.2132 7.33331 15.5V21.3333H4.99998V10.1497L12 3.14967Z" fill="#4F4F4F"/>
</svg>
